# xmcd
# 
# Track frame offsets:
#     150
#     31875
#     45954
#     69807
#     95432
#     114525
#     147372
#     160647
#     173939
#     199673
#     213900
# 
# Disc length: 3102
# 
# Revision: 1
# Processed by: cddbd v1.5.2PL0 Copyright (c) Steve Scherf et al.
# Submitted via: fre:ac v1.0.31
# 
DISCID=890c1c0b
DTITLE=Ripoff Raskolnikov Band - Small World
DYEAR=2018
DGENRE=Blues
TTITLE0=Shark
TTITLE1=The Way The Wind Blows
TTITLE2=Inuit Girl
TTITLE3=Blue Afternoon
TTITLE4=People
TTITLE5=So Much Water
TTITLE6=Thang
TTITLE7=Ada
TTITLE8=Small World
TTITLE9=Small Town Beauty
TTITLE10=I'll Walk Away
EXTD=
EXTT0=
EXTT1=
EXTT2=
EXTT3=
EXTT4=
EXTT5=
EXTT6=
EXTT7=
EXTT8=
EXTT9=
EXTT10=
PLAYORDER=
